<svg width="28" height="28" viewBox="0 0 28 28" fill="none" xmlns="http://www.w3.org/2000/svg">
<g id="lucide:linkedin">
<g id="Group">
<path id="Vector" d="M18.6666 9.3335C20.5232 9.3335 22.3036 10.071 23.6164 11.3837C24.9292 12.6965 25.6666 14.477 25.6666 16.3335V24.5002H21V16.3335C21 15.7147 20.7541 15.1212 20.3166 14.6836C19.879 14.246 19.2855 14.0002 18.6666 14.0002C18.0478 14.0002 17.4543 14.246 17.0167 14.6836C16.5791 15.1212 16.3333 15.7147 16.3333 16.3335V24.5002H11.6666V16.3335C11.6666 14.477 12.4041 12.6965 13.7169 11.3837C15.0297 10.071 16.8101 9.3335 18.6666 9.3335ZM2.33331 10.5002H6.99998V24.5002H2.33331V10.5002Z" stroke="#333333" stroke-width="2" stroke-linecap="round" stroke-linejoin="round"/>
<path id="Vector_2" d="M4.66665 7.00016C5.95531 7.00016 6.99998 5.95549 6.99998 4.66683C6.99998 3.37816 5.95531 2.3335 4.66665 2.3335C3.37798 2.3335 2.33331 3.37816 2.33331 4.66683C2.33331 5.95549 3.37798 7.00016 4.66665 7.00016Z" stroke="#333333" stroke-width="2" stroke-linecap="round" stroke-linejoin="round"/>
</g>
</g>
</svg>
