<svg width="28" height="28" viewBox="0 0 28 28" fill="none" xmlns="http://www.w3.org/2000/svg">
<g id="material-symbols:mail-outline">
<path id="Vector" d="M4.66665 23.3332C4.02498 23.3332 3.47587 23.1049 3.01931 22.6483C2.56276 22.1918 2.33409 21.6423 2.33331 20.9998V6.99984C2.33331 6.35817 2.56198 5.80906 3.01931 5.3525C3.47665 4.89595 4.02576 4.66728 4.66665 4.6665H23.3333C23.975 4.6665 24.5245 4.89517 24.9818 5.3525C25.4391 5.80984 25.6674 6.35895 25.6666 6.99984V20.9998C25.6666 21.6415 25.4384 22.191 24.9818 22.6483C24.5253 23.1057 23.9758 23.3339 23.3333 23.3332H4.66665ZM14 15.1665L4.66665 9.33317V20.9998H23.3333V9.33317L14 15.1665ZM14 12.8332L23.3333 6.99984H4.66665L14 12.8332ZM4.66665 9.33317V6.99984V20.9998V9.33317Z" fill="#333333"/>
</g>
</svg>
