<svg width="30" height="30" viewBox="0 0 30 30" fill="none" xmlns="http://www.w3.org/2000/svg">
<g id="Group">
<path id="Vector" d="M18.8577 14.9288L20.7859 13.0007L15 7.21338L9.21411 12.9993L11.1437 14.9275L13.6364 12.4361V22.7138H16.3637V12.4361L18.8577 14.9288Z" fill="#40A2D8"/>
<path id="Vector_2" fill-rule="evenodd" clip-rule="evenodd" d="M25.6064 4.39364C19.7482 -1.46455 10.2518 -1.46455 4.39364 4.39364C-1.46455 10.2518 -1.46455 19.7482 4.39364 25.6064C10.2518 31.4645 19.7482 31.4645 25.6064 25.6064C31.4645 19.7482 31.4645 10.2518 25.6064 4.39364ZM23.6782 6.32182C21.3766 4.02022 18.2549 2.7272 15 2.7272C11.7451 2.7272 8.62341 4.02022 6.32182 6.32182C4.02022 8.62341 2.7272 11.7451 2.7272 15C2.7272 18.2549 4.02022 21.3766 6.32182 23.6782C8.62341 25.9798 11.7451 27.2728 15 27.2728C18.2549 27.2728 21.3766 25.9798 23.6782 23.6782C25.9798 21.3766 27.2728 18.2549 27.2728 15C27.2728 11.7451 25.9798 8.62341 23.6782 6.32182Z" fill="#40A2D8"/>
</g>
</svg>
