<svg width="69" height="52" viewBox="0 0 69 52" fill="none" xmlns="http://www.w3.org/2000/svg">
<path d="M0.292893 7.29289C-0.0976311 7.68342 -0.0976311 8.31658 0.292893 8.70711L6.65685 15.0711C7.04738 15.4616 7.68054 15.4616 8.07107 15.0711C8.46159 14.6805 8.46159 14.0474 8.07107 13.6569L2.41421 8L8.07107 2.34315C8.46159 1.95262 8.46159 1.31946 8.07107 0.928932C7.68054 0.538408 7.04738 0.538408 6.65685 0.928932L0.292893 7.29289ZM34.7089 29.0233H35.7089H34.7089ZM34.7089 29.0233H35.7089H34.7089ZM68.4178 49.0466H55.7322V51.0466H68.4178V49.0466ZM13.6856 7H1V9H13.6856V7ZM35.7089 29.0233C35.7089 16.8602 25.8487 7 13.6856 7V9C24.7441 9 33.7089 17.9647 33.7089 29.0233H35.7089ZM55.7322 49.0466C44.6737 49.0466 35.7089 40.0819 35.7089 29.0233H33.7089C33.7089 41.1865 43.5691 51.0466 55.7322 51.0466V49.0466Z" fill="#B3B3B3"/>
</svg>
