<svg width="75" height="94" viewBox="0 0 75 94" fill="none" xmlns="http://www.w3.org/2000/svg">
<path d="M67.8823 93.5555C67.4918 93.946 66.8586 93.946 66.4681 93.5555L60.1042 87.1915C59.7136 86.801 59.7136 86.1678 60.1042 85.7773C60.4947 85.3868 61.1279 85.3868 61.5184 85.7773L67.1752 91.4342L72.8321 85.7773C73.2226 85.3868 73.8558 85.3868 74.2463 85.7773C74.6368 86.1678 74.6368 86.801 74.2463 87.1915L67.8823 93.5555ZM2 0V33.3442H0V0H2ZM25 56.3442H43.1753V58.3442H25V56.3442ZM68.1752 81.3442V92.8484H66.1752V81.3442H68.1752ZM43.1753 56.3442C56.9824 56.3442 68.1752 67.5371 68.1752 81.3442H66.1752C66.1752 68.6417 55.8778 58.3442 43.1753 58.3442V56.3442ZM2 33.3442C2 46.0468 12.2975 56.3442 25 56.3442V58.3442C11.1929 58.3442 0 47.1514 0 33.3442H2Z" fill="#B3B3B3"/>
</svg>
