<svg width="43" height="96" viewBox="0 0 43 96" fill="none" xmlns="http://www.w3.org/2000/svg">
<path d="M7.29289 95.2113C7.68342 95.6018 8.31658 95.6018 8.70711 95.2113L15.0711 88.8473C15.4616 88.4568 15.4616 87.8236 15.0711 87.4331C14.6805 87.0426 14.0474 87.0426 13.6569 87.4331L8 93.0899L2.34315 87.4331C1.95262 87.0426 1.31946 87.0426 0.928932 87.4331C0.538408 87.8236 0.538408 88.4568 0.928932 88.8473L7.29289 95.2113ZM40.2338 0V30.6352H42.2338V0H40.2338ZM7 63.869V94.5042H9V63.869H7ZM24.6169 46.2521C14.8873 46.2521 7 54.1394 7 63.869H9C9 55.244 15.9919 48.2521 24.6169 48.2521V46.2521ZM40.2338 30.6352C40.2338 39.2602 33.2418 46.2521 24.6169 46.2521V48.2521C34.3464 48.2521 42.2338 40.3647 42.2338 30.6352H40.2338Z" fill="#B3B3B3"/>
</svg>
