<svg width="106" height="70" viewBox="0 0 106 70" fill="none" xmlns="http://www.w3.org/2000/svg">
<path d="M0.0228236 66.2876C-0.094498 66.8272 0.247891 67.3599 0.78757 67.4772L9.58216 69.389C10.1218 69.5064 10.6544 69.164 10.7718 68.6243C10.8891 68.0846 10.5467 67.552 10.007 67.4347L2.18961 65.7353L3.88904 57.9178C4.00636 57.3782 3.66398 56.8456 3.1243 56.7282C2.58462 56.6109 2.05201 56.9533 1.93469 57.493L0.0228236 66.2876ZM74.5 23.0341L75.4378 22.6867L74.5 23.0341ZM1.54076 67.3412C5.0699 65.0724 7.94287 62.9279 10.5856 61.019C13.2377 59.1032 15.6564 57.4258 18.3372 56.0285C23.6567 53.2559 30.1121 51.5334 41.5 51.5334V49.5334C29.8879 49.5334 23.0933 51.2942 17.4128 54.2549C14.5936 55.7243 12.0748 57.476 9.41444 59.3977C6.74463 61.3263 3.9301 63.4276 0.459242 65.6588L1.54076 67.3412ZM41.5 51.5334C47.2436 51.5334 52.8524 51.5029 57.8598 51.0291C62.8556 50.5563 67.3554 49.6349 70.8421 47.7929C74.3747 45.9267 76.8749 43.1073 77.7744 38.932C78.6603 34.8204 77.967 29.5156 75.4378 22.6867L73.5622 23.3814C76.033 30.0525 76.5897 34.935 75.8193 38.5108C75.0626 42.0229 73.0003 44.3909 69.9079 46.0245C66.7696 47.6824 62.5819 48.5733 57.6714 49.038C52.7726 49.5015 47.2564 49.5334 41.5 49.5334V51.5334ZM75.4378 22.6867C73.266 16.823 73.118 12.7359 74.1713 9.87656C75.2089 7.05948 77.4947 5.22041 80.7213 4.0244C83.9682 2.82083 88.0614 2.31245 92.4971 2.11517C96.9314 1.91795 101.59 2.03378 106 2.03372L106 0.0337152C101.66 0.0337746 96.9015 -0.0827031 92.4082 0.117145C87.9162 0.316935 83.5712 0.83501 80.0261 2.14909C76.4606 3.47073 73.6003 5.64049 72.2945 9.18525C71.0044 12.6877 71.3156 17.3155 73.5622 23.3814L75.4378 22.6867Z" fill="#B9B9B9"/>
</svg>
