<svg width="42" height="75" viewBox="0 0 42 75" fill="none" xmlns="http://www.w3.org/2000/svg">
<path id="Shape" d="M6.96416 74.4188C7.35468 74.8093 7.98785 74.8093 8.37837 74.4188L14.7423 68.0548C15.1329 67.6643 15.1329 67.0311 14.7423 66.6406C14.3518 66.2501 13.7186 66.2501 13.3281 66.6406L7.67126 72.2975L2.01441 66.6406C1.62389 66.2501 0.990721 66.2501 0.600197 66.6406C0.209672 67.0311 0.209672 67.6643 0.600197 68.0548L6.96416 74.4188ZM39.2604 0.0464478V20.5845H41.2604V0.0464478H39.2604ZM6.67126 53.1736V73.7117H8.67126V53.1736H6.67126ZM23.9659 35.8791C14.4143 35.8791 6.67126 43.6221 6.67126 53.1736H8.67126C8.67126 44.7267 15.5189 37.8791 23.9659 37.8791V35.8791ZM39.2604 20.5845C39.2604 29.0315 32.4128 35.8791 23.9659 35.8791V37.8791C33.5174 37.8791 41.2604 30.136 41.2604 20.5845H39.2604Z" fill="#B3B3B3"/>
</svg>
