<svg width="41" height="59" viewBox="0 0 41 59" fill="none" xmlns="http://www.w3.org/2000/svg">
<path d="M33.6564 58.1142C33.2659 58.5047 32.6327 58.5047 32.2422 58.1142L25.8782 51.7503C25.4877 51.3597 25.4877 50.7266 25.8782 50.336C26.2687 49.9455 26.9019 49.9455 27.2924 50.336L32.9493 55.9929L38.6061 50.336C38.9967 49.9455 39.6298 49.9455 40.0203 50.336C40.4109 50.7266 40.4109 51.3597 40.0203 51.7503L33.6564 58.1142ZM2 0V12.7289H0V0H2ZM33.9493 44.6782V57.4071H31.9493V44.6782H33.9493ZM16.9746 27.7036C26.3495 27.7036 33.9493 35.3034 33.9493 44.6782H31.9493C31.9493 36.4079 25.2449 29.7036 16.9746 29.7036V27.7036ZM2 12.7289C2 20.9992 8.70437 27.7036 16.9746 27.7036V29.7036C7.59981 29.7036 0 22.1037 0 12.7289H2Z" fill="#B3B3B3"/>
</svg>
