<svg width="132" height="76" viewBox="0 0 132 76" fill="none" xmlns="http://www.w3.org/2000/svg">
<path d="M131.481 72.8039C131.589 73.3455 131.238 73.8723 130.696 73.9806L121.871 75.7457C121.329 75.854 120.803 75.5028 120.694 74.9612C120.586 74.4197 120.937 73.8928 121.479 73.7845L129.323 72.2156L127.754 64.3709C127.646 63.8294 127.997 63.3026 128.539 63.1942C129.08 63.0859 129.607 63.4372 129.716 63.9787L131.481 72.8039ZM129.945 73.8321C127.588 72.2607 125.598 70.137 123.521 68.0214C121.419 65.8809 119.172 63.6842 116.209 61.7799C110.328 57.9994 101.449 55.2626 85.1054 56.9945L84.8946 55.0056C101.551 53.2406 110.922 56.0037 117.291 60.0975C120.453 62.1303 122.831 64.4643 124.948 66.6202C127.089 68.801 128.912 70.7394 131.055 72.168L129.945 73.8321ZM85.1054 56.9945C76.8719 57.867 69.6761 58.6729 63.5427 58.9349C57.4178 59.1965 52.2416 58.923 48.0681 57.5772C43.8451 56.2155 40.6535 53.7562 38.5508 49.7233C36.474 45.7403 35.5 40.3 35.5 33.0341H37.5C37.5 40.1643 38.4635 45.23 40.3242 48.7987C42.159 52.3175 44.9049 54.4559 48.6819 55.6738C52.5084 56.9076 57.3947 57.1956 63.4573 56.9367C69.5114 56.6781 76.6281 55.8816 84.8946 55.0056L85.1054 56.9945ZM35.5 33.0341C35.5 20.1777 32.1713 12.6689 26.3384 8.30497C20.4313 3.88543 11.7248 2.5 0.5 2.5V0.5C11.7752 0.5 21.0687 1.86457 27.5366 6.70356C34.0787 11.5982 37.5 19.8564 37.5 33.0341H35.5Z" fill="#B9B9B9"/>
</svg>
